HIERARCHY
ROOT root
{
	OFFSET	0	13.1	24.9
	CHANNELS 6  Xposition Yposition Zposition Xrotation Yrotation Zrotation
	JOINT spine_1
	{
		OFFSET	0	9.99999	0
		CHANNELS 3  Xrotation Yrotation Zrotation
		JOINT spine_2
		{
			OFFSET	0	112	-10
			CHANNELS 3  Xrotation Yrotation Zrotation
			JOINT spine_3
			{
				OFFSET	0	206.5	19.3
				CHANNELS 3  Xrotation Yrotation Zrotation
				JOINT spine_4
				{
					OFFSET	0	110.4	14.6
					CHANNELS 3  Xrotation Yrotation Zrotation
					JOINT neck_1
					{
						OFFSET	0	71.8	-50.3
						CHANNELS 3  Xrotation Yrotation Zrotation
						JOINT neck_2
						{
							OFFSET	0	86.2	-25.8
							CHANNELS 3  Xrotation Yrotation Zrotation
							JOINT head_ee
							{
								OFFSET	0	179.8	-8.7
								CHANNELS 3  Xrotation Yrotation Zrotation
								End Site
								{
									OFFSET	1	0	0
								}
							}
						}
					}
					JOINT left_clavicle
					{
						OFFSET	-43.2	22.4	-70.8
						CHANNELS 3  Xrotation Yrotation Zrotation
						JOINT left_shoulder
						{
							OFFSET	-93.9	-5.79999	48.7
							CHANNELS 3  Xrotation Yrotation Zrotation
							JOINT left_elbow
							{
								OFFSET	-291.4	-30.8	15.2
								CHANNELS 3  Xrotation Yrotation Zrotation
								JOINT left_lowarm_twist
								{
									OFFSET	-110.7	-3.89999	13.6
									CHANNELS 3  Xrotation Yrotation Zrotation
									JOINT left_hand
									{
										OFFSET	-110.7	-3.89999	13.6
										CHANNELS 3  Xrotation Yrotation Zrotation
										JOINT left_ee
										{
											OFFSET	-80.8	-5.10001	12.1
											CHANNELS 3  Xrotation Yrotation Zrotation
											End Site
											{
												OFFSET	1	0	0
											}
										}
									}
								}
							}
						}
					}
					JOINT right_clavicle
					{
						OFFSET	43.2	22.4	-70.8
						CHANNELS 3  Xrotation Yrotation Zrotation
						JOINT right_shoulder
						{
							OFFSET	93.9	-5.79999	48.7
							CHANNELS 3  Xrotation Yrotation Zrotation
							JOINT right_elbow
							{
								OFFSET	291.4	-30.8	15.2
								CHANNELS 3  Xrotation Yrotation Zrotation
								JOINT right_lowarm_twist
								{
									OFFSET	110.7	-3.89999	13.6
									CHANNELS 3  Xrotation Yrotation Zrotation
									JOINT right_hand
									{
										OFFSET	110.7	-3.89999	13.6
										CHANNELS 3  Xrotation Yrotation Zrotation
										JOINT right_ee
										{
											OFFSET	80.8	-5.10001	12.1
											CHANNELS 3  Xrotation Yrotation Zrotation
											End Site
											{
												OFFSET	1	0	0
											}
										}
									}
								}
							}
						}
					}
				}
			}
		}
	}
	JOINT left_hip
	{
		OFFSET	-82.8	-127.5	0.300001
		CHANNELS 3  Xrotation Yrotation Zrotation
		JOINT left_knee
		{
			OFFSET	-28.2	-396.7	2.2
			CHANNELS 3  Xrotation Yrotation Zrotation
			JOINT left_ankle
			{
				OFFSET	-11.7	-411.3	35.4
				CHANNELS 3  Xrotation Yrotation Zrotation
				JOINT left_toes
				{
					OFFSET	0	-60	-88.6
					CHANNELS 3  Xrotation Yrotation Zrotation
					JOINT left_foot_ee
					{
						OFFSET	-22.5	-16.5	-42.2
						CHANNELS 3  Xrotation Yrotation Zrotation
						End Site
						{
							OFFSET	1	0	0
						}
					}
				}
			}
		}
	}
	JOINT right_hip
	{
		OFFSET	82.8	-127.5	0.300001
		CHANNELS 3  Xrotation Yrotation Zrotation
		JOINT right_knee
		{
			OFFSET	28.2	-396.7	2.2
			CHANNELS 3  Xrotation Yrotation Zrotation
			JOINT right_ankle
			{
				OFFSET	11.7	-411.3	35.4
				CHANNELS 3  Xrotation Yrotation Zrotation
				JOINT right_toes
				{
					OFFSET	0	-60	-88.6
					CHANNELS 3  Xrotation Yrotation Zrotation
					JOINT right_foot_ee
					{
						OFFSET	22.5	-16.5	-42.2
						CHANNELS 3  Xrotation Yrotation Zrotation
						End Site
						{
							OFFSET	1	0	0
						}
					}
				}
			}
		}
	}
}
MOTION
Frames: 16
Frame Time: 0.02
3128.21 737.758 -514.582 -174.553 -66.4144 -176.869 3.53752 0.123999 0.597073 3.53771 0.0857555 0.603753 3.53853 -0.00542738 0.609788 3.53802 0.0909436 0.602993 -8.63527 21.1275 8.31855 -8.68896 33.9568 13.0651 -0.0 0.0 -0.0 -0.988562 22.4878 1.22736 -36.1304 -29.7728 63.6781 0.950726 -25.2182 0.212676 -21.8924 -1.26184 2.48163 1.99883 20.4627 20.5531 -0.0 0.0 -0.0 4.65501 5.22909 -8.74888 -3.57501 40.6032 -67.684 2.26422 48.2744 -1.01471 -22.0194 1.27184 -2.49446 1.68402 11.5102 -6.47579 0.0 0.0 0.0 14.2581 11.0958 -9.17414 -19.261 0.3037 2.92626 18.9585 9.88177 -2.60359 -39.4654 0.0 0.0 -0.0 0.0 -0.0 14.3213 10.9474 -7.21532 -6.05532 -0.201532 -0.90703 9.31518 13.5826 1.42642 -17.4198 0.0 0.0 0.0 0.0 0.0 
3138.36 737.679 -515.639 -173.878 -66.5453 -175.967 3.50785 0.108918 0.594415 3.50804 0.0708743 0.60014 3.5087 -0.019917 0.603982 3.5082 0.0757189 0.599548 -8.67386 21.4423 9.0175 -8.69824 34.0829 13.8168 -0.0 0.0 -0.0 -1.99431 23.5709 0.00351199 -35.3395 -29.9734 64.1818 1.10975 -28.7984 0.284927 -22.33 -1.29643 2.52574 1.98133 20.5588 20.4684 -0.0 0.0 -0.0 4.34462 4.91462 -8.13844 -4.1378 40.1746 -67.7398 2.3961 49.8788 -1.11436 -21.5723 1.23674 -2.4492 1.67156 12.2715 -6.05653 0.0 0.0 0.0 14.1585 11.6746 -9.73183 -17.4762 0.317144 2.65275 19.3234 11.8831 -2.65538 -39.256 0.0 0.0 -0.0 0.0 -0.0 14.0232 10.9477 -7.26808 -5.54317 -0.188214 -0.829563 10.6844 13.5129 1.62656 -16.1584 0.0 0.0 0.0 0.0 0.0 
3145.25 735.775 -515.219 -172.861 -68.0542 -174.71 3.60663 0.0455731 0.508598 3.60678 0.0131178 0.510467 3.60682 -0.0627083 0.506771 3.60647 0.0181126 0.510314 -8.68155 21.5011 9.56481 -8.67198 33.8178 14.3499 -0.0 0.0 -0.0 -2.30815 23.434 -0.450117 -34.8736 -30.0069 63.6966 1.14409 -29.5414 0.301666 -22.757 -1.33052 2.56854 1.95047 21.0381 20.4072 -0.0 0.0 -0.0 4.12075 4.73124 -7.69771 -5.05439 39.9244 -67.8519 2.44638 50.4636 -1.15297 -21.3824 1.22195 -2.4299 1.68781 12.7774 -5.94319 0.0 0.0 0.0 13.9707 12.2157 -9.42619 -15.3988 0.322056 2.33407 19.7223 14.0204 -2.71568 -39.0365 0.0 0.0 -0.0 0.0 -0.0 13.765 10.9757 -7.44832 -5.39465 -0.184222 -0.807118 12.5349 13.5622 1.89442 -14.665 0.0 0.0 0.0 0.0 0.0 
3152.5 735.125 -519.39 -171.384 -69.1495 -173.125 3.74842 -0.00958083 0.523834 3.74857 -0.0428938 0.522162 3.7481 -0.118579 0.510326 3.74774 -0.0364956 0.522648 -8.6431 21.4887 9.79766 -8.6121 33.6198 14.5544 -0.0 0.0 -0.0 -2.22679 23.2005 -0.379328 -34.0664 -30.1156 63.5689 1.16173 -29.9188 0.310411 -23.0706 -1.35576 2.5998 1.92652 21.4503 20.371 -0.0 0.0 -0.0 3.81949 4.37835 -7.11368 -6.14578 39.5801 -67.5399 2.43877 50.376 -1.14711 -21.2487 1.21156 -2.41627 1.68905 13.0283 -5.84055 0.0 0.0 0.0 13.9288 12.7918 -8.94746 -13.8345 0.318128 2.0941 20.2361 15.5726 -2.79026 -38.8476 0.0 0.0 -0.0 0.0 -0.0 13.6503 11.0374 -7.09377 -5.0427 -0.17453 -0.753976 13.9637 13.4065 2.09516 -13.5608 0.0 0.0 0.0 0.0 0.0 
3160.69 736.45 -521.485 -171.655 -70.0613 -173.427 3.82865 -0.0753646 0.372488 3.82872 -0.098914 0.366937 3.82805 -0.150878 0.348802 3.82789 -0.0938984 0.368253 -8.27727 21.5415 9.67392 -8.20953 33.6881 14.3402 -0.0 0.0 -0.0 -2.20954 22.4977 -0.47817 -32.5828 -30.5181 64.2627 1.13676 -29.3837 0.298061 -23.232 -1.36881 2.61584 2.07734 21.8171 21.4297 -0.0 0.0 -0.0 3.49588 3.3468 -6.53315 -7.35778 39.3394 -67.5273 2.50075 51.0802 -1.19509 -21.2463 1.21138 -2.41603 1.53594 13.3563 -4.66139 0.0 0.0 0.0 13.9377 13.2762 -8.16276 -13.5155 0.316523 2.04518 19.1042 17.2798 -2.65997 -39.7374 0.0 0.0 -0.0 0.0 -0.0 13.5163 11.1433 -6.53337 -6.66447 -0.216471 -0.999318 14.2312 11.2625 2.1041 -13.7526 0.0 0.0 0.0 0.0 0.0 
3167.4 736.058 -522.065 -170.463 -71.2473 -172.364 3.8793 -0.115009 0.357101 3.87936 -0.137499 0.349059 3.87849 -0.18619 0.325702 3.87837 -0.132415 0.351019 -8.35625 21.6155 10.0214 -8.27681 33.611 14.7104 -0.0 0.0 -0.0 -1.98256 22.4717 -0.164851 -31.978 -30.4478 63.4953 1.186 -30.4336 0.322614 -23.4303 -1.38492 2.6355 1.89499 21.8876 20.2939 -0.0 0.0 -0.0 3.39194 3.77845 -6.29756 -8.48529 39.0456 -67.4101 2.47934 50.8394 -1.17846 -21.2305 1.21015 -2.41441 1.71046 13.6354 -5.71578 0.0 0.0 0.0 13.8496 13.6391 -7.8487 -12.6698 0.31095 1.91555 20.4248 17.5271 -2.82993 -38.6985 0.0 0.0 -0.0 0.0 -0.0 13.4312 11.083 -6.85989 -6.56369 -0.214067 -0.984039 15.6334 13.0474 2.32255 -12.2451 0.0 0.0 0.0 0.0 0.0 
3176.94 736.074 -527.431 -169.928 -72.1343 -171.767 3.87547 -0.145678 0.294675 3.87551 -0.164133 0.284808 3.87467 -0.203341 0.258279 3.87461 -0.159999 0.287151 -8.23344 21.4952 9.59998 -8.16396 33.6378 14.2459 -0.0 0.0 -0.0 -1.82966 22.2823 0.0182428 -31.3937 -30.6143 63.779 1.18941 -30.5054 0.324341 -23.542 -1.39401 2.64654 1.87961 22.1269 20.2637 -0.0 0.0 -0.0 2.99129 3.31702 -5.53284 -10.1798 38.4152 -67.0306 2.46167 50.6386 -1.16478 -21.3085 1.2162 -2.42237 1.68721 13.3389 -5.69044 0.0 0.0 0.0 13.5359 14.2207 -7.33484 -12.6219 0.310576 1.90821 20.3192 18.1765 -2.82264 -38.6905 0.0 0.0 -0.0 0.0 -0.0 13.284 11.2604 -5.84359 -8.1212 -0.248207 -1.2206 16.7351 12.2856 2.46147 -11.7022 0.0 0.0 0.0 0.0 0.0 
3182.01 735.349 -531.731 -170.517 -72.7164 -172.392 3.88531 -0.174617 0.18405 3.88531 -0.185975 0.172565 3.88474 -0.208807 0.1441 3.88476 -0.183429 0.175269 -8.52892 21.1207 8.69693 -8.54515 33.6494 13.3885 -0.0 0.0 -0.0 -1.50755 22.1184 0.445373 -30.4891 -30.6374 63.4369 1.19351 -30.5918 0.326428 -23.5215 -1.39234 2.64451 1.87148 22.2985 20.2602 -0.0 0.0 -0.0 2.80084 2.28209 -5.23234 -11.6431 38.0026 -66.7612 2.42169 50.1782 -1.13398 -21.6861 1.24565 -2.46075 1.5628 12.6535 -5.1525 0.0 0.0 0.0 13.3472 14.6134 -6.93419 -13.4203 0.315991 2.03059 19.9923 16.8671 -2.76957 -38.6676 0.0 0.0 -0.0 0.0 -0.0 13.0739 11.2353 -5.86055 -9.01378 -0.264868 -1.35656 18.8097 10.4079 2.70892 -10.9965 0.0 0.0 0.0 0.0 0.0 
3192.56 733.232 -534.777 -170.453 -72.8115 -172.267 3.93543 -0.205058 -0.0261846 3.93541 -0.202976 -0.0391799 3.93556 -0.195316 -0.0677195 3.93561 -0.20356 -0.036023 -8.02304 21.8097 9.00142 -7.97053 34.5885 13.6889 -0.0 0.0 -0.0 -1.2966 21.4882 0.649324 -29.5665 -31.1401 63.1998 1.21196 -30.9782 0.33587 -23.6438 -1.40232 2.65659 1.88219 22.3634 20.3454 -0.0 0.0 -0.0 2.41381 2.25975 -4.4729 -13.1466 38.2532 -66.7243 2.35858 49.4328 -1.08576 -21.3906 1.22258 -2.43073 1.71905 13.701 -5.74465 0.0 0.0 0.0 13.0423 14.9744 -6.56613 -13.425 0.316018 2.03131 19.9243 18.7817 -2.77838 -38.6332 0.0 0.0 -0.0 0.0 -0.0 12.6833 11.0944 -5.59018 -9.67538 -0.27585 -1.45748 19.0849 9.09967 2.72582 -10.8574 0.0 0.0 0.0 0.0 0.0 
3197.18 727.98 -541.639 -170.297 -73.2667 -172.682 4.04709 -0.224433 -0.070236 4.04706 -0.219509 -0.084375 4.0474 -0.205461 -0.114409 4.04745 -0.220951 -0.0805244 -8.87697 21.8324 9.21205 -8.92921 34.7546 14.1643 -0.0 0.0 -0.0 -1.03938 20.6306 0.895572 -28.4191 -31.1888 63.5099 1.21782 -31.1001 0.338888 -23.8203 -1.41678 2.67399 1.93173 22.7538 20.763 -0.0 0.0 -0.0 2.29396 1.54409 -4.29568 -12.9674 36.4859 -67.0332 2.21778 47.6842 -0.980204 -21.5439 1.23453 -2.44632 1.7568 13.4973 -6.09038 0.0 0.0 0.0 12.3642 15.3841 -5.40636 -13.8494 0.318196 2.09639 22.7745 13.7157 -3.0906 -37.7956 0.0 0.0 -0.0 0.0 -0.0 12.3917 11.8223 -3.67591 -11.7144 -0.302352 -1.76921 22.2517 9.05756 3.12613 -10.2736 0.0 0.0 0.0 0.0 0.0 
3203.62 727.686 -544.176 -170.502 -73.7787 -173.124 4.15903 -0.222873 -0.0951518 4.15901 -0.216366 -0.109141 4.15943 -0.199136 -0.138097 4.15948 -0.218447 -0.104914 -11.2239 21.4327 9.60818 -11.5631 34.4356 15.1952 -0.0 0.0 -0.0 -0.462757 19.1846 1.55118 -28.5426 -32.7312 62.5158 1.22234 -31.1942 0.341229 -23.5063 -1.39111 2.64301 1.88543 22.4822 20.3985 -0.0 0.0 -0.0 2.22715 1.25718 -4.18868 -14.7611 36.6604 -66.4469 2.16472 46.9932 -0.941188 -21.3709 1.22105 -2.42872 1.74132 13.5541 -5.96045 0.0 0.0 0.0 11.6692 15.6985 -4.69359 -13.2617 0.315051 2.00627 22.8115 14.3287 -3.09922 -38.7241 0.0 0.0 -0.0 0.0 -0.0 12.4868 12.2231 -2.67452 -13.827 -0.318093 -2.09295 24.2027 9.49555 3.37149 -9.90911 0.0 0.0 0.0 0.0 0.0 
3204.72 725.863 -546.714 -171.14 -73.4022 -174.163 4.10938 -0.14509 -0.161104 4.10939 -0.134544 -0.17001 4.10978 -0.1095 -0.187124 4.10976 -0.137678 -0.167482 -10.7522 21.2114 9.4723 -11.018 33.9619 14.8433 -0.0 0.0 -0.0 0.0677072 17.1584 2.1162 -27.8462 -33.287 62.6653 1.20237 -30.7777 0.330949 -22.9662 -1.34733 2.5894 2.18273 23.2138 22.4666 -0.0 0.0 -0.0 2.55924 0.866854 -4.86572 -14.9382 35.5531 -66.3098 1.87018 42.8087 -0.733135 -21.2412 1.21098 -2.41551 1.83696 14.3936 -6.23136 0.0 0.0 0.0 10.8495 16.0691 -3.93327 -12.9984 0.313342 1.96591 24.8651 13.2039 -3.33665 -38.7206 0.0 0.0 -0.0 0.0 -0.0 13.4912 12.1328 -2.10918 -16.3558 -0.321229 -2.4809 26.1129 8.30165 3.57743 -10.4078 0.0 0.0 0.0 0.0 0.0 
3206.15 726.347 -549.653 -170.372 -72.0329 -173.674 3.97812 -0.112069 -0.168863 3.97813 -0.101097 -0.175652 3.97844 -0.0751607 -0.188215 3.9784 -0.103942 -0.173983 -10.6757 21.5875 9.35294 -10.9662 34.7385 14.823 -0.0 0.0 -0.0 0.415521 17.6054 2.69922 -27.1312 -32.9947 61.5469 1.2298 -31.3487 0.345099 -23.089 -1.35724 2.60163 2.05631 23.2617 21.6808 -0.0 0.0 -0.0 2.38952 0.616419 -4.55554 -15.0592 35.7575 -66.8688 1.7876 41.5218 -0.677695 -21.3066 1.21606 -2.42217 1.76183 13.9047 -5.94281 0.0 0.0 0.0 10.6351 16.1772 -3.25915 -12.3186 0.308072 1.86174 25.3348 12.8198 -3.38913 -38.4198 0.0 0.0 -0.0 0.0 -0.0 13.7521 12.1834 -1.87555 -15.6993 -0.32206 -2.38017 27.2655 7.40781 3.69544 -10.3972 0.0 0.0 0.0 0.0 0.0 
3207.95 726.361 -551.463 -169.625 -72.1872 -172.985 3.89612 -0.11574 -0.242735 3.89615 -0.10006 -0.249608 3.89657 -0.0632714 -0.261367 3.89649 -0.103755 -0.248094 -10.7642 21.5324 9.16367 -11.0801 34.7833 14.6627 -0.0 0.0 -0.0 0.757573 16.7759 3.14605 -26.8045 -33.4873 60.8412 1.23058 -31.3649 0.345505 -22.887 -1.34096 2.58151 2.11178 23.3805 22.0609 -0.0 0.0 -0.0 2.45876 0.591275 -4.69173 -15.8782 35.3415 -66.4922 1.63211 38.9525 -0.577233 -21.2548 1.21203 -2.41689 1.76238 13.8548 -5.96883 0.0 0.0 0.0 10.5023 16.3212 -2.9593 -11.8551 0.303771 1.79075 26.904 11.8674 -3.56398 -38.4275 0.0 0.0 -0.0 0.0 -0.0 14.1866 12.3549 -1.24669 -17.5448 -0.316784 -2.66328 28.847 6.85772 3.86383 -10.2452 0.0 0.0 0.0 0.0 0.0 
3206.27 726.424 -556.463 -170.32 -71.3742 -174.114 3.88307 -0.0501475 -0.265552 3.8831 -0.0331481 -0.268205 3.88324 0.00567771 -0.270186 3.88314 -0.0370643 -0.267692 -11.4815 21.2346 8.35257 -11.9525 34.9392 14.0758 -0.0 0.0 -0.0 0.964058 15.9679 3.39543 -25.6018 -34.1445 60.785 1.27341 -32.2428 0.368081 -22.3795 -1.30037 2.53071 2.17773 23.6194 22.5379 -0.0 0.0 -0.0 2.46013 1.08637 -4.65608 -15.1958 35.1573 -67.0045 1.37976 34.3504 -0.426471 -21.6042 1.23924 -2.45244 1.80482 13.3941 -6.46108 0.0 0.0 0.0 10.3295 16.5582 -1.91299 -12.1144 0.306248 1.83046 27.394 11.2006 -3.61572 -38.5151 0.0 0.0 -0.0 0.0 -0.0 14.3205 12.96 -0.526364 -17.8928 -0.314768 -2.71663 29.4015 6.42138 3.9179 -10.5016 0.0 0.0 0.0 0.0 0.0 
3207.97 727.465 -559.958 -169.377 -71.9364 -173.37 3.91663 -0.106112 -0.258473 3.91666 -0.0894494 -0.264701 3.91706 -0.0507067 -0.274767 3.91697 -0.0934644 -0.26331 -12.0367 20.9641 7.5402 -12.639 35.0803 13.4432 -0.0 0.0 -0.0 1.15673 15.0004 3.61722 -25.0135 -35.0512 59.9259 1.3244 -33.2659 0.395665 -22.183 -1.28478 2.51095 2.09007 23.3536 21.9171 -0.0 0.0 -0.0 2.66914 1.14224 -5.05893 -14.9461 34.4254 -67.611 1.05909 27.6826 -0.260954 -21.7809 1.25307 -2.47035 1.84409 12.8389 -6.97416 0.0 0.0 0.0 9.54542 17.0247 -1.00016 -9.9775 0.280476 1.50361 26.4677 11.129 -3.5103 -38.9456 0.0 0.0 -0.0 0.0 -0.0 14.4057 13.6899 -0.0795312 -18.1154 -0.313308 -2.75074 30.6729 5.91266 4.04714 -10.743 0.0 0.0 0.0 0.0 0.0 
